<svg xmlns="http://www.w3.org/2000/svg" viewBox="0 0 50.01 201.15"><title>Recurso 6</title><g id="Capa_2" data-name="Capa 2"><g id="Capa_1-2" data-name="Capa 1"><path d="M0,133.25C0,114.6.1,96,0,77.3c0-6.64,1.8-12.12,7.85-15.61,6.56-3.77,9.19-9.17,8.69-17-.65-10.11-.14-20.3-.13-30.46,0-1.17-.13-2.34,0-3.49.26-3.46-.05-9.64,1-9.9C22.26-.29,27.55-.12,32.6.4c1.06.11,2.51,3.77,2.49,5.77C35,16.94,34.41,27.71,34,38.48c0,1,.11,2,0,3-1.25,9.21,1.08,16.45,9.91,21.26,4.39,2.4,6.26,7.12,6.07,12.42-.17,4.82-.24,9.66,0,14.48.2,3.65-1.28,4.5-4.67,4.4-7.49-.23-15,0-22.48-.09-2.87,0-4.94.73-5.37,3.87-1.53,11-3.48,22-4.42,33.09-.82,9.76,3.39,17.27,13.07,20.62,6.08,2.11,8.54,5.68,7.92,12.3-.77,8.27-.59,16.62-.8,24.94-.11,4.39-2.22,7.16-6.47,8.37-6.65,1.9-12.84,6.57-20.39,2.24-4-2.29-6.26-4.67-6.19-9.67.26-18.81.1-37.63.1-56.45Z"/></g></g></svg>